<svg xmlns="http://www.w3.org/2000/svg" version="1.1" x="0" y="0"
     viewBox="12.110718727111816 6.057498931884766 78.67363739013672 86.37550354003906"
     enable-background="new 0 0 100 100" xml:space="preserve" height="300" width="300" class="icon-icon-0"
     data-fill-palette-color="accent" id="icon-0">
    <g fill="#1ebbd7" data-fill-palette-color="accent">
        <path d="M89.568 47.178c-0.444-0.836-0.444-2.204 0-3.04l0.96-1.803c0.444-0.836 0.292-2.098-0.341-2.803l-1.363-1.521c-0.632-0.705-0.959-2.034-0.728-2.952l0.5-1.98c0.232-0.918-0.219-2.106-1.001-2.64l-1.687-1.15c-0.783-0.534-1.419-1.745-1.413-2.692l0.011-2.042c0.006-0.947-0.716-1.993-1.604-2.323l-1.913-0.713c-0.888-0.331-1.795-1.355-2.017-2.276l-0.478-1.985c-0.222-0.921-1.173-1.764-2.113-1.873l-2.028-0.234c-0.941-0.109-2.067-0.886-2.503-1.728l-0.938-1.813c-0.436-0.841-1.561-1.432-2.5-1.312l-2.025 0.257c-0.939 0.12-2.22-0.366-2.843-1.078l-1.346-1.536c-0.624-0.712-1.857-1.016-2.741-0.676l-1.906 0.735c-0.884 0.341-2.241 0.176-3.018-0.367l-1.675-1.169c-0.775-0.542-2.047-0.542-2.823 0l-1.674 1.169c-0.776 0.542-2.135 0.708-3.019 0.367l-1.906-0.735c-0.883-0.34-2.117-0.037-2.741 0.676l-1.345 1.536c-0.624 0.712-1.903 1.198-2.843 1.078l-2.026-0.257c-0.94-0.12-2.064 0.471-2.5 1.312l-0.939 1.813c-0.436 0.841-1.561 1.619-2.502 1.728l-2.029 0.234c-0.941 0.109-1.892 0.952-2.113 1.873l-0.478 1.985c-0.222 0.921-1.129 1.945-2.017 2.276l-1.913 0.713c-0.888 0.331-1.609 1.376-1.604 2.323l0.012 2.042c0.005 0.947-0.63 2.159-1.413 2.692l-1.687 1.15c-0.783 0.533-1.233 1.721-1.001 2.64l0.5 1.98c0.232 0.918-0.095 2.247-0.728 2.952l-1.363 1.521c-0.632 0.705-0.786 1.967-0.34 2.803l0.959 1.803c0.445 0.836 0.445 2.204 0 3.04l-0.959 1.803c-0.445 0.837-0.292 2.099 0.34 2.804l1.363 1.521c0.632 0.705 0.96 2.034 0.728 2.952l-0.5 1.98c-0.232 0.918 0.218 2.105 1.001 2.64l1.687 1.15c0.783 0.533 1.418 1.745 1.413 2.692l-0.012 2.042c-0.005 0.947 0.716 1.993 1.604 2.324l1.913 0.713c0.888 0.33 1.795 1.354 2.017 2.275l0.478 1.986c0.221 0.92 1.172 1.763 2.113 1.872l2.029 0.234c0.941 0.108 2.067 0.886 2.502 1.728l0.939 1.813c0.435 0.841 1.56 1.432 2.5 1.312l0.019-0.002c-0.311 1.308-0.595 2.456-0.767 3.046-0.204 0.695-0.671 0.77-1.418 0.832-0.826 0.069-1.854 0.155-2.103 1.78-0.089 0.584 0.045 1.091 0.4 1.508 1.145 1.345 4.305 1.586 6.002 1.598L36.839 90c0 0 0.161 0 0.161 0v-0.209c0 0 0.1-0.137 0.185-0.147-0.049 0.201 0.082 0.364 0.082 0.635 0 1.447 0.733 2.154 3.733 2.154v-0.015c1 0 2.186-0.184 2.992-0.3l0.126-0.036c0.804-0.114 1.31-0.637 1.475-1.431 0.198-0.957-0.253-2.313-1.454-3.053-0.523-0.322-0.782-1.724-0.858-3.497 0.057-0.017 0.109-0.027 0.164-0.049l1.903-0.735c0.884-0.341 2.241-0.176 3.018 0.366l1.673 1.17c0.776 0.542 2.046 0.542 2.822 0l1.675-1.17c0.776-0.542 2.134-0.707 3.018-0.366l1.906 0.735c0.055 0.021 0.114 0.032 0.171 0.049-0.077 1.773-0.323 3.174-0.847 3.496-1.201 0.739-1.627 2.095-1.429 3.052 0.165 0.794 0.721 1.314 1.524 1.429l0.227 0.033c0.807 0.116 2.025 0.293 3.193 0.293 2.366 0 3.566-0.734 3.566-2.182 0-0.271-0.035-0.273-0.084-0.475C65.866 89.758 65.944 90 66.035 90c0.001 0 0.022 0 0.023 0l0.222-0.219c1.697-0.012 4.856-0.145 6.002-1.489 0.354-0.417 0.489-0.979 0.4-1.562-0.249-1.625-1.277-1.737-2.104-1.807-0.746-0.062-1.214-0.163-1.417-0.858C68.989 83.475 68.705 82 68.395 81h0.019c0.939 0 2.064-0.461 2.5-1.302l0.938-1.809c0.436-0.842 1.562-1.617 2.503-1.726l2.028-0.233c0.94-0.109 1.892-0.95 2.113-1.87l0.478-1.986c0.222-0.921 1.129-1.945 2.017-2.275l1.913-0.713c0.888-0.331 1.609-1.377 1.604-2.324l-0.011-2.042c-0.006-0.947 0.63-2.159 1.413-2.692l1.687-1.15c0.782-0.534 1.233-1.722 1.001-2.64l-0.5-1.98c-0.231-0.918 0.096-2.247 0.728-2.952l1.363-1.521c0.633-0.705 0.785-1.967 0.341-2.804L89.568 47.178zM36.878 29.481c0.852-1.476 2.415-2.196 4.336-1.983 0.097 0.01 0.179-0.043 0.211-0.129 0.449-1.202 1.347-2.032 2.745-2.538 2.669-0.966 5.111-0.583 7.268 1.146 0.077 0.062 0.186 0.059 0.259-0.005 1.54-1.35 3.439-1.874 5.629-1.559 2.001 0.286 3.264 1.021 3.972 2.31 0.422 0.769 0.931 1.147 1.812 1.351 1.083 0.25 2.016 0.833 2.696 1.688 0.555 0.699 0.795 1.5 0.692 2.317-0.108 0.869-0.608 1.683-1.407 2.291-0.793 0.604-1.689 0.997-2.742 1.199-0.224 0.043-0.584 0.222-0.684 0.485-0.451 1.217-1.363 2.053-2.788 2.556-2.677 0.944-5.102 0.553-7.229-1.169-0.047-0.038-0.107-0.053-0.168-0.041-0.06 0.012-0.109 0.051-0.138 0.104-0.684 1.32-2.453 2.108-4.73 2.108-2.948 0-6.222-1.604-6.482-4.256C40.12 35.252 40.033 35 39.93 35c-0.001 0-0.003 0-0.004 0l-0.103 0.175c0 0 0 0.087-0.001 0.087-1.35 0-2.426-0.534-3.032-1.583C36.084 32.456 36.12 30.795 36.878 29.481zM36.955 89H37v0.317l-0.087-0.25-0.258-0.002c-1.502-0.012-4.646-0.035-5.643-1.206-0.26-0.306-0.362-0.668-0.295-1.107 0.189-1.236 0.83-1.29 1.646-1.358 0.688-0.058 1.543-0.13 1.853-1.189 0.185-0.632 0.488-1.868 0.816-3.254l1.477-0.188c0.124-0.016 0.254-0.02 0.387-0.016-0.29 2.15-0.331 4.174 0.392 4.787 0.885 0.751 1.077 1.936 0.808 2.669-0.023 0.064-0.062 0.14-0.104 0.216-0.252 0.121-0.433 0.265-0.604 0.53C37.25 89 37.142 89 36.955 89zM37.612 85.153c-0.535-0.454-0.501-2.236-0.214-4.345 0.745 0.143 1.513 0.528 1.955 1.032l1.129 1.289c-0.132 1.678-0.267 3.242-0.365 3.978-0.096 0.718-0.547 0.861-1.275 1.036-0.075 0.018-0.152 0.037-0.229 0.058C38.865 87.29 38.617 86.006 37.612 85.153zM36.739 42.641c2.886-2.331 5.563-1.944 6.507-1.697-0.46 0.145-0.923 0.287-1.397 0.388C41.199 41.47 38.872 42.281 36.739 42.641zM43.852 88.023c0.994 0.611 1.36 1.757 1.201 2.524-0.07 0.338-0.307 0.922-1.105 1.036l-0.227 0.032c-0.792 0.115-1.989 0.288-3.121 0.288h0c-3.067 0-3.067-1.266-3.067-1.682 0-0.386 0.065-0.657 0.171-0.867 0.249-0.127 0.464-0.303 0.627-0.542 0.189-0.075 0.4-0.129 0.627-0.184 0.672-0.161 1.508-0.361 1.654-1.456 0.09-0.678 0.211-2.047 0.332-3.562 0.488 0.396 1.181 0.607 1.823 0.575C42.859 86.015 43.15 87.592 43.852 88.023zM62.298 91.904c-1.132 0-2.329-0.173-3.122-0.288l-0.228-0.032c-0.798-0.114-1.034-0.698-1.104-1.036-0.16-0.768 0.207-1.913 1.2-2.524 0.702-0.432 0.993-2.009 1.085-3.837 0.642 0.032 1.334-0.179 1.822-0.574 0.12 1.51 0.241 2.875 0.333 3.562 0.146 1.095 0.982 1.295 1.654 1.456 0.228 0.055 0.438 0.108 0.627 0.183 0.163 0.24 0.379 0.416 0.627 0.542 0.106 0.21 0.172 0.482 0.172 0.868C65.364 90.639 65.364 91.904 62.298 91.904zM65.498 80.809c0.287 2.109 0.321 3.891-0.214 4.345-1.005 0.853-1.253 2.137-1.001 3.048-0.077-0.021-0.154-0.04-0.229-0.058-0.728-0.175-1.179-0.318-1.274-1.036-0.099-0.735-0.233-2.299-0.365-3.978l1.13-1.289C63.985 81.337 64.754 80.952 65.498 80.809zM59.674 40.86c0.54-0.184 2.202-0.649 3.71 0 0.959 0.413 1.681 1.219 2.163 2.375C63.14 42.406 60.611 41.225 59.674 40.86zM68.682 84.204c0.311 1.06 1.167 1.132 1.855 1.189 0.817 0.068 1.462 0.122 1.651 1.358 0.067 0.439-0.026 0.802-0.287 1.107-0.997 1.171-4.123 1.194-5.625 1.206l-0.241 0.002L66 89.317v-0.25c0 0-0.324-0.034-0.462-0.084-0.172-0.266-0.39-0.442-0.642-0.564-0.042-0.076-0.076-0.152-0.1-0.217-0.27-0.732-0.076-1.917 0.81-2.668 0.722-0.613 0.681-2.637 0.392-4.787 0.135-0.004 0.265 0 0.389 0.016l1.478 0.188C68.192 82.336 68.497 83.572 68.682 84.204zM70.592 43.56c-0.474 0.868-2.383 0.54-4.499-0.143 0.022-0.057 0.028-0.121 0.005-0.183-0.53-1.392-1.378-2.346-2.521-2.835-2.012-0.865-4.2 0.031-4.292 0.07-0.077 0.032-0.117 0.101-0.135 0.177-0.023-0.01-0.039-0.017-0.065-0.027 0.076 0.211 0.104 0.33 0.16 0.437 1.415 2.741 2.349 5.646 2.919 8.666 0.574 3.039 0.816 6.094 0.313 9.174-0.296 1.811-0.845 3.508-1.895 5.039-1.469 2.144-3.532 3.306-6.021 3.826 2.366-1.123 3.701-3.07 3.721-3.1 0.076-0.115 0.046-0.271-0.069-0.347-0.115-0.075-0.271-0.046-0.347 0.069-0.023 0.037-2.231 3.27-6.006 3.617-0.479 0-0.957 0-1.436 0-0.66 0-1.326-0.128-1.979-0.272-3.71-0.82-6.093-3.02-7.239-6.606-0.862-2.699-0.906-5.472-0.647-8.269 0.29-3.143 1.012-6.181 2.152-9.119 0.4-1.033 0.887-2.033 1.329-3.037-0.038 0.011-0.076 0.024-0.114 0.036-0.024-0.063-0.07-0.116-0.138-0.143-0.158-0.063-3.899-1.485-7.812 2.033-0.041 0.037-0.055 0.087-0.065 0.136-1.421 0.154-2.631 0.02-3-0.784-0.881-1.922 5.009-4.923 6.926-5.832 0.658 2.517 3.864 3.871 6.773 3.871 2.312 0 4.145-0.786 4.969-2.116 2.192 1.687 4.696 2.054 7.429 1.089 1.545-0.544 2.537-1.458 3.032-2.794 0.027-0.074 0.219-0.2 0.383-0.231 0.082-0.016 0.157-0.041 0.237-0.059C66.339 37.659 71.62 41.673 70.592 43.56z"
              fill="#1ebbd7" data-fill-palette-color="accent"></path>
        <path d="M53.219 47.191c-0.293 0-0.498 0.199-0.507 0.473-0.004 0.121 0.045 0.245 0.134 0.339 0.087 0.092 0.204 0.146 0.321 0.149l0.012 0.25v-0.25c0.284 0 0.488-0.194 0.496-0.473C53.682 47.419 53.478 47.2 53.219 47.191z"
              fill="#1ebbd7" data-fill-palette-color="accent"></path>
        <path d="M53.228 63.903c-0.422-0.014-0.752 0.295-0.766 0.715-0.012 0.392 0.312 0.736 0.699 0.745 0.427 0.01 0.752-0.296 0.764-0.715C53.936 64.249 53.624 63.916 53.228 63.903z"
              fill="#1ebbd7" data-fill-palette-color="accent"></path>
        <path d="M50.621 63.903c-0.422-0.014-0.752 0.295-0.765 0.715-0.013 0.392 0.311 0.736 0.699 0.745 0.427 0.01 0.752-0.296 0.764-0.715C51.328 64.249 51.018 63.916 50.621 63.903z"
              fill="#1ebbd7" data-fill-palette-color="accent"></path>
        <path d="M48.615 48.286C48.614 48.286 48.614 48.286 48.615 48.286c-0.294 0-0.499 0.199-0.508 0.473-0.004 0.122 0.045 0.246 0.134 0.34 0.088 0.092 0.201 0.145 0.319 0.147l0.015 0.25v-0.25c0.283 0 0.486-0.194 0.494-0.472C49.077 48.513 48.873 48.294 48.615 48.286z"
              fill="#1ebbd7" data-fill-palette-color="accent"></path>
        <path d="M47.923 44.972c-1.488-0.048-2.652 1.038-2.7 2.521-0.044 1.381 1.097 2.6 2.464 2.63 1.505 0.033 2.654-1.043 2.694-2.524C50.42 46.191 49.32 45.017 47.923 44.972zM48.576 49.746H48.55c-0.252-0.005-0.491-0.113-0.671-0.303-0.181-0.19-0.28-0.445-0.272-0.7 0.018-0.546 0.443-0.958 0.989-0.958 0.567 0.018 0.988 0.467 0.974 1.002C49.555 49.334 49.127 49.746 48.576 49.746z"
              fill="#1ebbd7" data-fill-palette-color="accent"></path>
        <path d="M54.432 43.551c-1.718 0.02-2.991 1.342-2.971 3.086 0.02 1.596 1.378 2.919 2.982 2.906 1.64-0.013 2.976-1.38 2.959-3.029C57.387 44.871 56.046 43.533 54.432 43.551zM53.179 48.652h-0.022c-0.255-0.006-0.493-0.115-0.674-0.305-0.18-0.19-0.278-0.444-0.271-0.698 0.018-0.546 0.443-0.958 0.988-0.958 0.567 0.019 0.989 0.468 0.975 1.002C54.159 48.24 53.731 48.652 53.179 48.652z"
              fill="#1ebbd7" data-fill-palette-color="accent"></path>
    </g>
</svg>
